<?xml version="1.0" encoding="utf-8"?>
<!-- Generator: Adobe Illustrator 25.0.0, SVG Export Plug-In . SVG Version: 6.00 Build 0)  -->
<svg version="1.1" id="Layer_2" xmlns="http://www.w3.org/2000/svg" xmlns:xlink="http://www.w3.org/1999/xlink" x="0px" y="0px"
	 viewBox="0 0 80 80" style="enable-background:new 0 0 80 80;" xml:space="preserve">
<path d="M42.95,65.5V2.09c0-0.09-0.07-0.17-0.17-0.17h-3.56c-0.09,0-0.17,0.07-0.17,0.17V65.5c0,0.17-0.22,0.22-0.31,0.07
	C29.74,49.38,12.09,49.1,10.16,49.12c-0.09,0-0.17,0.08-0.16,0.17l0.15,3.55c0,0.09,0.07,0.16,0.16,0.16
	c2.22-0.06,23.51,0.18,28.66,24.44c0.02,0.08,0.08,0.13,0.16,0.13H41h1.86c0.08,0,0.14-0.06,0.16-0.13
	c5.15-24.26,26.44-24.5,28.66-24.43c0.09,0,0.16-0.07,0.16-0.16L72,49.3c0-0.09-0.07-0.17-0.16-0.17
	c-1.92-0.02-19.57,0.26-28.58,16.45C43.17,65.72,42.95,65.67,42.95,65.5z"/>
</svg>
