<svg id="Layer_2" data-name="Layer 2" xmlns="http://www.w3.org/2000/svg" viewBox="0 0 56.14 68.5"><defs><style>.cls-1{fill:#fff;}</style></defs><path class="cls-1" d="M42.76,62.06V4.65a.15.15,0,0,0-.15-.15H39.39a.15.15,0,0,0-.15.15V62.06a.15.15,0,0,1-.28.07C30.8,47.47,14.82,47.22,13.08,47.24a.15.15,0,0,0-.15.15l.14,3.22a.15.15,0,0,0,.14.15c2-.06,21.29.15,26,22.12a.14.14,0,0,0,.14.12h3.38a.14.14,0,0,0,.14-.12c4.67-22,24-22.18,26-22.12a.15.15,0,0,0,.14-.15l.14-3.22a.15.15,0,0,0-.15-.15c-1.74,0-17.72.23-25.88,14.89A.15.15,0,0,1,42.76,62.06Z" transform="translate(-12.93 -4.5)"/></svg>