<?xml version="1.0" encoding="utf-8"?>
<!-- Generator: Adobe Illustrator 25.0.0, SVG Export Plug-In . SVG Version: 6.00 Build 0)  -->
<svg version="1.1" id="blueicon" xmlns="http://www.w3.org/2000/svg" xmlns:xlink="http://www.w3.org/1999/xlink" x="0px" y="0px"
	 viewBox="0 0 90 90" style="enable-background:new 0 0 90 90;" xml:space="preserve">
<style type="text/css">
	.st0{fill:#5699FF;}
</style>
<path class="st0" d="M88.73,66.66c0,11.74-9.52,21.27-21.27,21.27S46.2,78.41,46.2,66.66c0-1.3,0.13-2.56,0.36-3.79
	c-0.39,0.03-0.77,0.06-1.17,0.06c-0.34,0-0.67-0.03-1.01-0.05c0.22,1.23,0.36,2.49,0.36,3.78c0,11.74-9.52,21.27-21.27,21.27
	S2.21,78.41,2.21,66.66c0-11.74,9.52-21.27,21.27-21.27c1.46,0,2.89,0.15,4.27,0.43c-0.01-0.19-0.03-0.38-0.03-0.57
	c0-0.37,0.03-0.73,0.05-1.09c-1.39,0.28-2.82,0.43-4.3,0.43c-11.74,0-21.27-9.52-21.27-21.27c0-11.74,9.52-21.27,21.27-21.27
	s21.27,9.52,21.27,21.27c0,1.47-0.15,2.91-0.43,4.3c0.36-0.02,0.72-0.05,1.09-0.05c0.42,0,0.83,0.03,1.25,0.06
	c-0.29-1.39-0.44-2.83-0.44-4.31c0-11.74,9.52-21.27,21.27-21.27s21.27,9.52,21.27,21.27c0,11.74-9.52,21.27-21.27,21.27
	c-1.53,0-3.02-0.17-4.45-0.48c0.02,0.38,0.06,0.75,0.06,1.13c0,0.21-0.02,0.41-0.03,0.61c1.43-0.3,2.91-0.47,4.43-0.47
	C79.21,45.4,88.73,54.92,88.73,66.66z"/>
</svg>
