<svg width="240" height="234" viewBox="0 0 240 234" fill="none" xmlns="http://www.w3.org/2000/svg">
<g clip-path="url(#clip0_99_1031)">
<path d="M42.5 3.60197e-06H197.5C203.083 -0.0052581 208.612 1.09045 213.77 3.22441C218.929 5.35837 223.616 8.48869 227.564 12.4362C231.511 16.3838 234.642 21.071 236.776 26.2297C238.91 31.3884 240.005 36.9173 240 42.5V191.5C240.005 197.083 238.91 202.612 236.776 207.77C234.642 212.929 231.511 217.616 227.564 221.564C223.616 225.511 218.929 228.642 213.77 230.776C208.612 232.91 203.083 234.005 197.5 234H42.5C36.9174 234.005 31.3885 232.91 26.2297 230.776C21.071 228.642 16.3838 225.511 12.4362 221.564C8.48871 217.616 5.35838 212.929 3.22442 207.77C1.09046 202.612 -0.00524284 197.083 1.88608e-05 191.5V42.5C-0.00524284 36.9173 1.09046 31.3884 3.22442 26.2297C5.35838 21.071 8.48871 16.3838 12.4362 12.4362C16.3838 8.48869 21.071 5.35837 26.2297 3.22441C31.3885 1.09045 36.9174 -0.0052581 42.5 3.60197e-06Z" fill="#330000"/>
<path d="M116.299 140.4H79.0994L71.4994 163.9C71.4145 164.328 71.1725 164.709 70.8209 164.968C70.4694 165.228 70.0337 165.346 69.5994 165.3H50.7994C49.6994 165.3 49.3994 164.7 49.6994 163.5L81.8994 70.8C82.1994 69.8 82.4994 68.7 82.8994 67.5C83.3019 65.3568 83.5027 63.1806 83.4994 61C83.4694 60.7495 83.5352 60.497 83.6836 60.293C83.8319 60.089 84.0519 59.9487 84.2994 59.9H110.199C110.999 59.9 111.399 60.2 111.499 60.7L147.999 163.7C148.299 164.8 147.999 165.3 146.999 165.3H126.099C125.746 165.334 125.392 165.242 125.099 165.041C124.807 164.84 124.594 164.542 124.499 164.2L116.299 140.4ZM84.8994 120.1H110.299C109.699 118 108.899 115.5 107.999 112.9C107.099 110.3 106.199 107.3 105.299 104.3C104.399 101.3 103.399 98.2 102.399 95.1C101.399 92 100.499 89.1 99.6994 86.2C98.8994 83.3 98.1994 80.8 97.4994 78.4H97.2994C96.4007 82.7584 95.2657 87.0648 93.8994 91.3C92.3994 96.1 90.8994 101.1 89.2994 106.1C87.8994 111.2 86.3994 115.9 84.8994 120.1Z" fill="#FF9A00"/>
<path d="M169.8 77C168.158 77.0359 166.526 76.745 164.998 76.1441C163.47 75.5432 162.077 74.6444 160.9 73.5C158.609 70.9949 157.388 67.693 157.5 64.3C157.441 62.6468 157.731 60.9998 158.351 59.4663C158.971 57.9327 159.908 56.5472 161.1 55.4C163.503 53.1281 166.692 51.874 170 51.9C173.9 51.9 176.9 53.1 179.1 55.4C181.315 57.8247 182.499 61.0171 182.4 64.3C182.461 65.9896 182.182 67.6742 181.581 69.2544C180.98 70.8346 180.068 72.2782 178.9 73.5C177.721 74.7002 176.299 75.6337 174.729 76.2375C173.16 76.8413 171.479 77.1013 169.8 77ZM158.6 163.8V86.8C158.6 85.8 159 85.4 159.9 85.4H179.7C180.6 85.4 181 85.9 181 86.8V163.8C181 164.9 180.6 165.4 179.7 165.4H160.1C159.89 165.417 159.678 165.387 159.481 165.311C159.285 165.235 159.108 165.116 158.963 164.962C158.819 164.808 158.711 164.624 158.648 164.423C158.586 164.221 158.569 164.009 158.6 163.8Z" fill="#FF9A00"/>
</g>
<defs>
<clipPath id="clip0_99_1031">
<rect width="240" height="234" fill="white"/>
</clipPath>
</defs>
</svg>
