<svg id="Layer_1" data-name="Layer 1" xmlns="http://www.w3.org/2000/svg" viewBox="0 0 83.03 83.03"><defs><style>.cls-1{fill:#ff8f4a;}</style></defs><path class="cls-1" d="M52.28,11.83l7.16,13.1A44.37,44.37,0,0,0,77.07,42.56l13.1,7.16a2.6,2.6,0,0,1,0,4.56L78.79,60.5A50.92,50.92,0,0,0,58.5,80.79L52.28,92.17a2.6,2.6,0,0,1-4.56,0L42,81.6A54.36,54.36,0,0,0,20.4,60.05L9.83,54.28a2.6,2.6,0,0,1,0-4.56l12.63-6.9A46.2,46.2,0,0,0,40.82,24.46l6.9-12.63A2.6,2.6,0,0,1,52.28,11.83Z" transform="translate(-8.48 -10.48)"/></svg>