<svg id="Layer_2" data-name="Layer 2" xmlns="http://www.w3.org/2000/svg" viewBox="0 0 92.2 92.2"><defs><style>.cls-1{fill:#ff96f9;}</style></defs><path class="cls-1" d="M93.92,44.24H67.5L86.18,25.55a5.76,5.76,0,0,0,0-8.15h0a5.77,5.77,0,0,0-8.14,0L59.35,36.09V9.66A5.77,5.77,0,0,0,53.59,3.9h0a5.77,5.77,0,0,0-5.76,5.76V36.09L29.14,17.4a5.78,5.78,0,0,0-8.15,0h0a5.78,5.78,0,0,0,0,8.15L39.68,44.24H13.25a5.76,5.76,0,0,0,0,11.52H39.68L21,74.45a5.78,5.78,0,0,0,0,8.15h0a5.78,5.78,0,0,0,8.15,0L47.83,63.91V90.34a5.77,5.77,0,0,0,5.76,5.76h0a5.77,5.77,0,0,0,5.76-5.76V63.91L78,82.6a5.77,5.77,0,0,0,8.14,0h0a5.76,5.76,0,0,0,0-8.15L67.5,55.76H93.92a5.76,5.76,0,1,0,0-11.52Z" transform="translate(-7.49 -3.9)"/></svg>